<svg width="36" height="38" viewBox="0 0 36 38" fill="none" xmlns="http://www.w3.org/2000/svg">
<g filter="url(#filter0_d_680_140)">
<path d="M5 12.4667C5 9.85309 5 8.5463 5.60725 7.54804C6.1414 6.66995 6.99372 5.95605 8.04205 5.50864C9.23385 5 10.794 5 13.9143 5H22.0857C25.206 5 26.7662 5 27.9579 5.50864C29.0063 5.95605 29.8586 6.66995 30.3927 7.54804C31 8.5463 31 9.85309 31 12.4667V33L18 26.7778L5 33V12.4667Z" fill="white" fill-opacity="0.3" shape-rendering="crispEdges"/>
<path d="M5 12.4667C5 9.85309 5 8.5463 5.60725 7.54804C6.1414 6.66995 6.99372 5.95605 8.04205 5.50864C9.23385 5 10.794 5 13.9143 5H22.0857C25.206 5 26.7662 5 27.9579 5.50864C29.0063 5.95605 29.8586 6.66995 30.3927 7.54804C31 8.5463 31 9.85309 31 12.4667V33L18 26.7778L5 33V12.4667Z" stroke="white" stroke-linecap="round" stroke-linejoin="round" shape-rendering="crispEdges"/>
</g>
<defs>
<filter id="filter0_d_680_140" x="0.5" y="0.5" width="35" height="37" filterUnits="userSpaceOnUse" color-interpolation-filters="sRGB">
<feFlood flood-opacity="0" result="BackgroundImageFix"/>
<feColorMatrix in="SourceAlpha" type="matrix" values="0 0 0 0 0 0 0 0 0 0 0 0 0 0 0 0 0 0 127 0" result="hardAlpha"/>
<feOffset/>
<feGaussianBlur stdDeviation="2"/>
<feComposite in2="hardAlpha" operator="out"/>
<feColorMatrix type="matrix" values="0 0 0 0 0 0 0 0 0 0 0 0 0 0 0 0 0 0 0.1 0"/>
<feBlend mode="normal" in2="BackgroundImageFix" result="effect1_dropShadow_680_140"/>
<feBlend mode="normal" in="SourceGraphic" in2="effect1_dropShadow_680_140" result="shape"/>
</filter>
</defs>
</svg>
