<svg width="34" height="36" viewBox="0 0 34 36" fill="none" xmlns="http://www.w3.org/2000/svg">
<g filter="url(#filter0_d_145_122)">
<path d="M5 11.9333C5 9.50644 5 8.29299 5.56054 7.36604C6.0536 6.55067 6.84036 5.88776 7.80805 5.47231C8.90817 5 10.3483 5 13.2286 5H20.7714C23.6517 5 25.0918 5 26.192 5.47231C27.1596 5.88776 27.9464 6.55067 28.4395 7.36604C29 8.29299 29 9.50644 29 11.9333V31L17 25.2222L5 31V11.9333Z" fill="white" fill-opacity="0.3" shape-rendering="crispEdges"/>
<path d="M5 11.9333C5 9.50644 5 8.29299 5.56054 7.36604C6.0536 6.55067 6.84036 5.88776 7.80805 5.47231C8.90817 5 10.3483 5 13.2286 5H20.7714C23.6517 5 25.0918 5 26.192 5.47231C27.1596 5.88776 27.9464 6.55067 28.4395 7.36604C29 8.29299 29 9.50644 29 11.9333V31L17 25.2222L5 31V11.9333Z" stroke="white" stroke-linecap="round" stroke-linejoin="round" shape-rendering="crispEdges"/>
</g>
<defs>
<filter id="filter0_d_145_122" x="0.5" y="0.5" width="33" height="35" filterUnits="userSpaceOnUse" color-interpolation-filters="sRGB">
<feFlood flood-opacity="0" result="BackgroundImageFix"/>
<feColorMatrix in="SourceAlpha" type="matrix" values="0 0 0 0 0 0 0 0 0 0 0 0 0 0 0 0 0 0 127 0" result="hardAlpha"/>
<feOffset/>
<feGaussianBlur stdDeviation="2"/>
<feComposite in2="hardAlpha" operator="out"/>
<feColorMatrix type="matrix" values="0 0 0 0 0 0 0 0 0 0 0 0 0 0 0 0 0 0 0.1 0"/>
<feBlend mode="normal" in2="BackgroundImageFix" result="effect1_dropShadow_145_122"/>
<feBlend mode="normal" in="SourceGraphic" in2="effect1_dropShadow_145_122" result="shape"/>
</filter>
</defs>
</svg>
