<svg width="38" height="38" viewBox="0 0 38 38" fill="none" xmlns="http://www.w3.org/2000/svg">
<path d="M33.25 15.8337H4.75M33.25 19.792V13.9337C33.25 11.2734 33.25 9.94328 32.7323 8.9272C32.2769 8.03343 31.5502 7.30678 30.6565 6.85138C29.6404 6.33366 28.3102 6.33366 25.65 6.33366H12.35C9.68975 6.33366 8.35963 6.33366 7.34355 6.85138C6.44978 7.30678 5.72312 8.03343 5.26772 8.9272C4.75 9.94328 4.75 11.2734 4.75 13.9337V27.2337C4.75 29.8939 4.75 31.224 5.26772 32.2401C5.72312 33.1339 6.44978 33.8605 7.34355 34.3159C8.35963 34.8337 9.68975 34.8337 12.35 34.8337H19M25.3333 3.16699V9.50033M12.6667 3.16699V9.50033M22.9583 30.0837L26.125 33.2503L33.25 26.1253" stroke="#2B2B2B" stroke-width="2" stroke-linecap="round" stroke-linejoin="round"/>
</svg>
