<svg width="38" height="38" viewBox="0 0 38 38" fill="none" xmlns="http://www.w3.org/2000/svg">
<path d="M11.5 19H11.5167M19 19H19.0167M26.5 19H26.5167M19 34C27.2843 34 34 27.2843 34 19C34 10.7157 27.2843 4 19 4C10.7157 4 4 10.7157 4 19C4 20.9952 4.38956 22.8995 5.09677 24.6408C5.23212 24.9741 5.2998 25.1408 5.32999 25.2755C5.35953 25.4072 5.37033 25.5047 5.37034 25.6398C5.37036 25.7778 5.3453 25.9282 5.29518 26.2289L4.30688 32.1587C4.20338 32.7797 4.15164 33.0902 4.24793 33.3147C4.33222 33.5112 4.4888 33.6678 4.68531 33.7521C4.90982 33.8484 5.2203 33.7966 5.84127 33.6931L11.7711 32.7048C12.0718 32.6547 12.2222 32.6296 12.3602 32.6297C12.4953 32.6297 12.5928 32.6405 12.7245 32.67C12.8592 32.7002 13.0259 32.7679 13.3592 32.9032C15.1005 33.6104 17.0048 34 19 34ZM12.3333 19C12.3333 19.4602 11.9602 19.8333 11.5 19.8333C11.0398 19.8333 10.6667 19.4602 10.6667 19C10.6667 18.5398 11.0398 18.1667 11.5 18.1667C11.9602 18.1667 12.3333 18.5398 12.3333 19ZM19.8333 19C19.8333 19.4602 19.4602 19.8333 19 19.8333C18.5398 19.8333 18.1667 19.4602 18.1667 19C18.1667 18.5398 18.5398 18.1667 19 18.1667C19.4602 18.1667 19.8333 18.5398 19.8333 19ZM27.3333 19C27.3333 19.4602 26.9602 19.8333 26.5 19.8333C26.0398 19.8333 25.6667 19.4602 25.6667 19C25.6667 18.5398 26.0398 18.1667 26.5 18.1667C26.9602 18.1667 27.3333 18.5398 27.3333 19Z" stroke="#9C9C9C" stroke-linecap="round" stroke-linejoin="round"/>
</svg>
