<svg width="38" height="38" viewBox="0 0 38 38" fill="none" xmlns="http://www.w3.org/2000/svg">
<path d="M11.0833 13.4583H19M11.0833 19H23.75M11.0833 28.5V32.1979C11.0833 33.0416 11.0833 33.4634 11.2563 33.6801C11.4067 33.8685 11.6348 33.9781 11.8759 33.9778C12.1531 33.9775 12.4825 33.714 13.1413 33.187L16.9183 30.1654C17.6898 29.5481 18.0756 29.2395 18.5052 29.02C18.8863 28.8253 19.292 28.683 19.7113 28.597C20.1838 28.5 20.6779 28.5 21.6659 28.5H25.65C28.3102 28.5 29.6404 28.5 30.6565 27.9823C31.5502 27.5269 32.2769 26.8002 32.7323 25.9065C33.25 24.8904 33.25 23.5602 33.25 20.9V12.35C33.25 9.68975 33.25 8.35963 32.7323 7.34355C32.2769 6.44978 31.5502 5.72312 30.6565 5.26772C29.6404 4.75 28.3103 4.75 25.65 4.75H12.35C9.68975 4.75 8.35963 4.75 7.34355 5.26772C6.44978 5.72312 5.72312 6.44978 5.26772 7.34355C4.75 8.35963 4.75 9.68975 4.75 12.35V22.1667C4.75 23.6391 4.75 24.3753 4.91185 24.9794C5.35107 26.6186 6.63142 27.8989 8.27061 28.3381C8.87465 28.5 9.61088 28.5 11.0833 28.5Z" stroke="#515151" stroke-linecap="round" stroke-linejoin="round"/>
</svg>
