<svg width="38" height="38" viewBox="0 0 38 38" fill="none" xmlns="http://www.w3.org/2000/svg">
<path d="M7.91675 22.6204C4.98542 23.9135 3.16675 25.7155 3.16675 27.7087C3.16675 31.6437 10.2556 34.8337 19.0001 34.8337C27.7446 34.8337 34.8334 31.6437 34.8334 27.7087C34.8334 25.7155 33.0147 23.9135 30.0834 22.6204M28.5001 12.667C28.5001 19.1012 21.3751 22.167 19.0001 26.917C16.6251 22.167 9.50008 19.1012 9.50008 12.667C9.50008 7.42029 13.7534 3.16699 19.0001 3.16699C24.2468 3.16699 28.5001 7.42029 28.5001 12.667ZM20.5834 12.667C20.5834 13.5414 19.8745 14.2503 19.0001 14.2503C18.1256 14.2503 17.4167 13.5414 17.4167 12.667C17.4167 11.7925 18.1256 11.0837 19.0001 11.0837C19.8745 11.0837 20.5834 11.7925 20.5834 12.667Z" stroke="#2B2B2B" stroke-width="2" stroke-linecap="round" stroke-linejoin="round"/>
</svg>
