<svg width="14" height="14" viewBox="0 0 14 14" fill="none" xmlns="http://www.w3.org/2000/svg">
<path d="M3.89683 12.0881C4.07494 12.0395 4.164 12.0153 4.24705 11.978C4.32079 11.9449 4.39088 11.9042 4.45621 11.8566C4.52979 11.803 4.59506 11.7377 4.72561 11.6072L10.7534 5.57933C10.8689 5.46383 10.9267 5.40607 10.9483 5.33948C10.9674 5.2809 10.9674 5.2178 10.9483 5.15922C10.9267 5.09262 10.8689 5.03487 10.7534 4.91937L9.08006 3.246C8.96456 3.13049 8.90681 3.07274 8.84021 3.0511C8.78163 3.03207 8.71853 3.03207 8.65995 3.0511C8.59336 3.07274 8.5356 3.13049 8.4201 3.246L2.39228 9.27382C2.26173 9.40437 2.19646 9.46964 2.14285 9.54322C2.09525 9.60855 2.05457 9.67864 2.02147 9.75238C1.98418 9.83543 1.95989 9.92449 1.91132 10.1026L1.16675 12.8327L3.89683 12.0881Z" fill="white"/>
<path d="M10.5001 1.16602L12.8334 3.49935M1.16675 12.8327L1.91132 10.1026C1.95989 9.92449 1.98418 9.83543 2.02147 9.75238C2.05457 9.67864 2.09525 9.60855 2.14285 9.54322C2.19646 9.46964 2.26173 9.40437 2.39228 9.27382L8.4201 3.246C8.5356 3.13049 8.59336 3.07274 8.65995 3.0511C8.71853 3.03207 8.78163 3.03207 8.84021 3.0511C8.90681 3.07274 8.96456 3.13049 9.08006 3.246L10.7534 4.91937C10.8689 5.03487 10.9267 5.09262 10.9483 5.15922C10.9674 5.2178 10.9674 5.2809 10.9483 5.33948C10.9267 5.40607 10.8689 5.46383 10.7534 5.57933L4.72561 11.6072C4.59506 11.7377 4.52979 11.803 4.45621 11.8566C4.39088 11.9042 4.32079 11.9449 4.24705 11.978C4.164 12.0153 4.07494 12.0395 3.89683 12.0881L1.16675 12.8327Z" stroke="white" stroke-linecap="round" stroke-linejoin="round"/>
</svg>
