<svg width="38" height="38" viewBox="0 0 38 38" fill="none" xmlns="http://www.w3.org/2000/svg">
<path d="M18.2084 7.91699H18.8962C23.721 7.91699 26.1334 7.91699 27.0492 8.78353C27.8408 9.53257 28.1916 10.636 27.9778 11.7047C27.7306 12.9409 25.7611 14.334 21.822 17.1202L15.3865 21.6721C11.4474 24.4583 9.47789 25.8514 9.23065 27.0877C9.01694 28.1563 9.36774 29.2597 10.1593 30.0088C11.0751 30.8753 13.4875 30.8753 18.3123 30.8753H19.7917M12.6667 7.91699C12.6667 10.5403 10.5401 12.667 7.91675 12.667C5.2934 12.667 3.16675 10.5403 3.16675 7.91699C3.16675 5.29364 5.2934 3.16699 7.91675 3.16699C10.5401 3.16699 12.6667 5.29364 12.6667 7.91699ZM34.8334 30.0837C34.8334 32.707 32.7068 34.8337 30.0834 34.8337C27.4601 34.8337 25.3334 32.707 25.3334 30.0837C25.3334 27.4603 27.4601 25.3337 30.0834 25.3337C32.7068 25.3337 34.8334 27.4603 34.8334 30.0837Z" stroke="#2B2B2B" stroke-width="2" stroke-linecap="round" stroke-linejoin="round"/>
</svg>
