<svg width="32" height="32" viewBox="0 0 32 32" fill="none" xmlns="http://www.w3.org/2000/svg">
<path d="M11.4533 18.0137L20.56 23.3203M20.5467 8.68033L11.4533 13.987M28 6.66699C28 8.87613 26.2091 10.667 24 10.667C21.7909 10.667 20 8.87613 20 6.66699C20 4.45785 21.7909 2.66699 24 2.66699C26.2091 2.66699 28 4.45785 28 6.66699ZM12 16.0003C12 18.2095 10.2091 20.0003 8 20.0003C5.79086 20.0003 4 18.2095 4 16.0003C4 13.7912 5.79086 12.0003 8 12.0003C10.2091 12.0003 12 13.7912 12 16.0003ZM28 25.3337C28 27.5428 26.2091 29.3337 24 29.3337C21.7909 29.3337 20 27.5428 20 25.3337C20 23.1245 21.7909 21.3337 24 21.3337C26.2091 21.3337 28 23.1245 28 25.3337Z" stroke="#515151" stroke-linecap="round" stroke-linejoin="round"/>
</svg>
